<?xml version="1.0" encoding="UTF-8"?>
<svg id="Layer_1" data-name="Layer 1" xmlns="http://www.w3.org/2000/svg" xmlns:xlink="http://www.w3.org/1999/xlink" viewBox="0 0 100 100">
  <defs>
    <style>
      .cls-1 {
        fill: url(#linear-gradient-2);
      }

      .cls-2 {
        fill: #fff;
      }

      .cls-3 {
        fill: url(#linear-gradient-6);
      }

      .cls-4 {
        fill: url(#linear-gradient-10);
      }

      .cls-5 {
        fill: url(#linear-gradient-5);
      }

      .cls-6 {
        fill: url(#linear-gradient-7);
      }

      .cls-7 {
        fill: url(#linear-gradient-9);
      }

      .cls-8 {
        fill: url(#linear-gradient-3);
      }

      .cls-9 {
        fill: url(#linear-gradient);
      }

      .cls-10 {
        fill: #0088d3;
      }

      .cls-11 {
        fill: url(#linear-gradient-4);
      }

      .cls-12 {
        fill: url(#linear-gradient-8);
      }
    </style>
    <linearGradient id="linear-gradient" x1="-1009.38" y1="388.87" x2="379.98" y2="-61.2" gradientUnits="userSpaceOnUse">
      <stop offset="0" stop-color="#94121e"/>
      <stop offset=".5" stop-color="#b52c2c"/>
      <stop offset="1" stop-color="#a31724"/>
    </linearGradient>
    <linearGradient id="linear-gradient-2" x1="-58.84" y1="98.11" x2="60.1" y2="59.58" xlink:href="#linear-gradient"/>
    <linearGradient id="linear-gradient-3" x1="-27.98" y1="89.92" x2="54.8" y2="63.11" xlink:href="#linear-gradient"/>
    <linearGradient id="linear-gradient-4" x1="-15.8" y1="86.73" x2="56.03" y2="63.46" xlink:href="#linear-gradient"/>
    <linearGradient id="linear-gradient-5" x1="-13.88" y1="87.12" x2="58.67" y2="63.61" xlink:href="#linear-gradient"/>
    <linearGradient id="linear-gradient-6" x1="-19.76" y1="90.18" x2="66.11" y2="62.36" xlink:href="#linear-gradient"/>
    <linearGradient id="linear-gradient-7" x1="-15.67" y1="90.93" x2="72.53" y2="62.35" xlink:href="#linear-gradient"/>
    <linearGradient id="linear-gradient-8" x1="-8.05" y1="90.18" x2="77.82" y2="62.36" xlink:href="#linear-gradient"/>
    <linearGradient id="linear-gradient-9" x1="-7.58" y1="90.98" x2="82.3" y2="61.86" xlink:href="#linear-gradient"/>
    <linearGradient id="linear-gradient-10" x1="1.01" y1="89.92" x2="83.79" y2="63.11" xlink:href="#linear-gradient"/>
  </defs>
  <rect class="cls-10" width="100" height="100"/>
  <g>
    <g>
      <g>
        <path class="cls-9" d="M75.54,64.14c-.81,.82-3.01,.76-3.55,.73-2.95-1.91-6.27-3.28-9.8-4.21,.04-.04,.08-.08,.12-.12,.58-.63,1.08-1.34,1.51-2.15,.45,.19,.9,.39,1.35,.6,.45,.21,.92,.45,1.42,.71l1.74,.82c.24,.09,.59,.09,1.06-.02,.47-.11,.9-.26,1.29-.46,.39-.2,.66-.43,.82-.67,.15-.25,.03-.47-.37-.66-.12-.05-.22-.1-.32-.16-.09-.06-.2-.11-.32-.16h.04c-.95-.45-1.88-.88-2.8-1.29-.92-.41-1.88-.81-2.87-1.19,.28-.8,.53-1.65,.74-2.54,.21-.89,.41-1.83,.6-2.82l1.95-10.14c.02-.35-.15-.72-.53-1.1-.38-.38-.83-.71-1.37-.99-.53-.28-1.06-.5-1.6-.64-.53-.14-.93-.15-1.19-.04-.05,1.11-.12,2.18-.23,3.21-.11,1.03-.22,2.02-.34,2.96-.05,.12-.1,.24-.16,.35-.06,.12-.11,.24-.16,.35h.04c-.24,.54-.49,1.1-.76,1.67-.27,.57-.58,1.1-.92,1.6-.34,.5-.74,.95-1.21,1.35-.46,.4-1,.69-1.61,.85h-.39c-.17,0-.28-.14-.35-.43-.12-.38-.16-.87-.12-1.47,.04-.6,.11-1.25,.23-1.95,.12-.7,.26-1.4,.43-2.11,.17-.71,.32-1.35,.46-1.92,.09-.35,.18-.69,.25-.99,.07-.31,.12-.56,.14-.74,.02-.35-.15-.72-.51-1.1-.37-.38-.81-.71-1.33-.99-.52-.28-1.03-.5-1.54-.64-.51-.14-.88-.17-1.12-.07l-.18,.21c.02,.69,0,1.41-.09,2.18-.08,.77-.18,1.56-.3,2.36-.14,1.14-.28,2.25-.41,3.33-.13,1.09-.16,2-.09,2.73,.02,.21,.06,.42,.11,.62,.05,.2,.09,.4,.14,.59,.26,.8,.71,1.48,1.35,2.04,.64,.56,1.42,.85,2.34,.87,.45,0,.86-.04,1.24-.12,.38-.08,.72-.2,1.03-.34,.31-.14,.57-.29,.8-.44,.22-.15,.41-.29,.55-.41,.21-.19,.41-.38,.59-.59,.18-.2,.36-.41,.55-.62-.28,1.58-.67,3.1-1.17,4.54-.57-.17-1.11-.31-1.61-.43-.51-.12-1.03-.21-1.56-.28-.53-.07-1.09-.12-1.68-.16-.59-.04-1.25-.05-1.99-.05-.93,0-1.8,.08-2.62,.25-.19-.13-.36-.28-.52-.46-.37-.43-.64-.96-.83-1.6-.35-1.04-.51-2.29-.48-3.76,.04-1.47,.19-3.01,.46-4.63,.27-1.62,.63-3.24,1.08-4.86,.45-1.62,.92-3.12,1.42-4.5,.5-1.38,.98-2.57,1.45-3.56,.47-.99,.87-1.67,1.21-2.02,0-.07-.07-.18-.2-.34-.13-.15-.31-.32-.53-.5-.23-.18-.49-.37-.78-.57-.3-.2-.59-.4-.87-.59-.35-.28-.76-.51-1.22-.69-.46-.18-.77-.2-.94-.05-2.18,2.77-4.06,5.66-5.66,8.67-1.6,3.02-3.1,6.11-4.52,9.28l-.89,1.99c-.33,.73-.66,1.48-.99,2.23-.33,.76-.65,1.51-.96,2.27-.05,.09-.11,.24-.2,.44-.08,.2-.16,.41-.23,.62-.07,.21-.14,.41-.21,.59-.07,.18-.11,.3-.11,.37-.02-.07-.03-.18-.02-.34,.01-.15,.03-.31,.05-.48,.24-1.96,.55-3.91,.94-5.83,.39-1.93,.82-3.81,1.29-5.66,.43-1.65,.87-3.45,1.33-5.37,.46-1.93,.89-4.12,1.29-6.58-.02-.21-.22-.5-.59-.87-.37-.37-.78-.7-1.24-1.01-.46-.31-.89-.55-1.29-.73-.4-.18-.64-.18-.71-.02v.07l-.11,.67c-.9,1.32-1.82,2.77-2.77,4.33-.95,1.56-1.9,3.16-2.87,4.79-1.23,2.06-2.47,4.09-3.72,6.08-1.25,2-2.5,3.79-3.72,5.37-1.23,1.58-2.43,2.87-3.6,3.85-1.17,.98-2.28,1.47-3.32,1.47-1.11-.14-1.96-.46-2.55-.96-.59-.5-1.06-1.08-1.42-1.74-.09-.19-.18-.38-.27-.59-.08-.2-.16-.4-.23-.59-.05-.21-.1-.43-.16-.66-.06-.22-.11-.46-.16-.69-.02-.05-.04-.13-.04-.25-.14-.9-.11-1.98,.09-3.25,.2-1.26,.53-2.58,.99-3.94,.46-1.36,1.05-2.7,1.77-4.03,.72-1.32,1.54-2.51,2.47-3.55,.92-1.04,1.93-1.87,3.03-2.48,1.1-.61,2.26-.9,3.49-.85,.45,.05,.81,.23,1.08,.55,.27,.32,.47,.69,.59,1.12,.19,.52,.29,1.06,.3,1.61,.01,.56,0,.96-.02,1.22,.05,.47,.25,.74,.6,.8,.35,.06,.74-.01,1.17-.21,.43-.2,.82-.5,1.19-.89,.37-.39,.6-.81,.69-1.26v-.04c.07-.31,.02-.7-.14-1.17-.14-.45-.39-.93-.74-1.44-.35-.51-.78-.98-1.28-1.4-.5-.43-1.05-.78-1.67-1.06-.62-.28-1.27-.44-1.95-.46-1.63-.02-3.12,.31-4.47,1.01-1.35,.7-2.55,1.63-3.62,2.78-1.06,1.16-1.98,2.48-2.75,3.96-.77,1.48-1.39,2.98-1.86,4.5-.47,1.53-.79,3.02-.94,4.47-.15,1.45-.14,2.73,.05,3.81,.05,.21,.11,.46,.18,.74,.07,.28,.15,.57,.25,.85,.21,.69,.51,1.41,.9,2.16,.39,.76,.87,1.45,1.44,2.09,.57,.64,1.23,1.16,1.99,1.58,.76,.41,1.62,.62,2.59,.62,.95,.02,1.83-.16,2.66-.55,.83-.39,1.59-.89,2.29-1.49,.7-.6,1.34-1.27,1.93-2,.59-.73,1.14-1.42,1.63-2.06,.26-.33,.49-.64,.69-.92,.2-.28,.35-.46,.44-.53,.64-.76,1.19-1.5,1.67-2.22,.47-.72,.93-1.44,1.38-2.15h-.04c.87-1.32,1.7-2.65,2.48-3.99,.78-1.34,1.55-2.69,2.31-4.06-.05,.09-.07,.17-.07,.21-.43,1.68-.85,3.38-1.26,5.09-.41,1.71-.76,3.36-1.05,4.93-.28,1.57-.46,3.02-.53,4.33-.07,1.31,.04,2.39,.32,3.25,.33,.99,.9,1.64,1.7,1.95v-.04c.5,.19,.98,.25,1.44,.2,.46-.06,.87-.19,1.24-.39,.37-.2,.69-.46,.96-.76,.27-.31,.48-.62,.62-.92,1.09-2.48,2.26-4.99,3.53-7.52,1.26-2.53,2.64-5.05,4.13-7.56-.31,1.25-.58,2.52-.82,3.8-.24,1.28-.4,2.53-.5,3.76-.09,1.23-.11,2.41-.04,3.53,.07,1.12,.26,2.16,.57,3.1,.4,1.21,1.01,2.21,1.83,3.02,.19,.18,.39,.35,.6,.51-.27,.15-.52,.31-.75,.48-.72,.54-1.22,1.19-1.51,1.95-.2,.53-.26,1.08-.18,1.67-20.33,.42-40.97,8.46-40.97,8.46v7.4c4.87-4.81,21.27-10.68,21.27-10.68,7.38-2.46,14.19-3.48,20.21-3.66,.21,.37,.48,.7,.81,.99,.54,.47,1.18,.85,1.9,1.14,.72,.28,1.5,.5,2.32,.64,.83,.14,1.64,.21,2.45,.21,1.32,0,2.51-.11,3.55-.34,1.04-.23,1.96-.56,2.75-.99,.24-.13,.47-.28,.7-.43,6.18,1.25,10.34,3.1,11.84,3.83,2.48,1.55,3.68,.13,3.68,.13,.94-1.02-.92-1.51-.92-1.51Zm-27.21-6.06c.34-.44,.85-.8,1.53-1.08,.67-.28,1.44-.5,2.31-.64,.51-.08,1.02-.14,1.52-.18,.44,0,.87-.01,1.27-.03,.87,0,1.67,.07,2.4,.18,.8,.12,1.6,.28,2.38,.5-.58,1.11-1.25,2.07-2.01,2.88-3.15-.51-6.41-.75-9.69-.77,0-.32,.1-.6,.3-.86Zm4.56,3.74c-.43,0-.89-.03-1.38-.09-.5-.06-.97-.17-1.42-.34-.45-.17-.85-.39-1.19-.67-.1-.08-.19-.17-.28-.27,2.74,.01,5.29,.19,7.64,.48-.95,.59-2.08,.89-3.38,.89Z"/>
        <path class="cls-1" d="M32.55,67.63s.05-.03,.08-.05l.44-.16,.04-.21h-1.46l-.04,.21,.43,.16s.05,.03,.07,.05,.02,.05,.01,.08l-.6,2.71h-.05l-.14-.37-1.36-2.84h-1.14l-.05,.21,.45,.15s.06,.03,.07,.05c.01,.02,.02,.05,0,.09l-.68,3.07s-.03,.07-.05,.09c-.02,.02-.05,.04-.09,.05l-.44,.16-.05,.21h1.46l.05-.21-.43-.16s-.03-.01-.04-.02c-.01,0-.02-.01-.03-.02,0,0-.01-.02-.01-.04,0-.02,0-.03,0-.06l.64-2.91h.05l.14,.38,1.47,3.07h.3l.22-.66,.65-2.94s.03-.07,.05-.09Z"/>
        <path class="cls-8" d="M36.26,70.89s-.03-.06-.03-.09l-.62-3.64h-.32l-.48,.68-1.81,2.96s-.05,.06-.08,.09c-.03,.03-.07,.05-.1,.07l-.28,.13-.05,.21h1.3l.05-.21-.47-.18,.62-1.04h1.53l.18,1.05-.49,.16-.05,.21h1.46l.05-.21-.32-.12s-.05-.03-.07-.06Zm-2.08-1.38l.95-1.59,.05,.03,.05,.36,.21,1.2h-1.25Z"/>
        <path class="cls-11" d="M39.46,67.21h-1.72l-.05,.21,.46,.14s.05,.03,.07,.05c.01,.02,.02,.05,0,.09l-.68,3.09s-.03,.07-.05,.09c-.02,.02-.05,.04-.09,.05l-.45,.14-.05,.21h1.72l.05-.21-.46-.14s-.06-.03-.07-.05c-.01-.02-.01-.05,0-.09l.68-3.09s.02-.05,.04-.07c.02-.02,.04-.04,.07-.05,.02-.01,.05-.02,.08-.03,.03,0,.06-.02,.08-.03l.33-.1,.05-.21Z"/>
        <path class="cls-5" d="M42.11,70.81s-.01,.03-.03,.05c-.01,.02-.02,.03-.04,.04-.01,.01-.03,.02-.04,.02-.02,0-.03,0-.05,0h-1.52l.72-3.24s.03-.07,.06-.09c.03-.02,.06-.04,.09-.05l.43-.14,.05-.21h-1.68l-.04,.21,.44,.14s.06,.03,.07,.05c.01,.02,.01,.05,0,.08l-.68,3.09s-.03,.07-.06,.1c-.03,.02-.06,.04-.09,.05l-.43,.14-.05,.21h3.2l.29-1.3h-.34l-.31,.83Z"/>
        <path class="cls-3" d="M45.87,67.19c-.11-.02-.22-.04-.33-.05-.11-.01-.23-.02-.34-.02-.21,0-.42,.03-.61,.1-.19,.06-.36,.15-.5,.27-.14,.11-.26,.25-.34,.4-.08,.15-.13,.32-.13,.5,0,.1,.02,.19,.05,.28,.03,.09,.07,.17,.13,.24,.06,.07,.12,.14,.2,.2,.08,.06,.16,.11,.26,.15,.07,.03,.14,.07,.21,.09,.07,.03,.14,.06,.21,.09,.07,.03,.15,.06,.22,.09,.07,.03,.15,.06,.23,.1,.14,.07,.24,.15,.32,.24,.08,.09,.11,.21,.11,.34s-.03,.25-.08,.35c-.05,.1-.12,.19-.22,.26-.09,.07-.2,.12-.34,.16-.13,.04-.28,.06-.44,.06-.06,0-.13,0-.2-.02-.07-.01-.14-.03-.21-.05-.07-.02-.13-.04-.2-.07-.06-.03-.12-.06-.17-.09s-.09-.06-.11-.09c-.03-.03-.04-.06-.04-.09l.03-.62h-.33l-.23,1.08c.1,.04,.21,.07,.33,.11,.12,.03,.23,.07,.35,.09,.12,.03,.23,.05,.34,.07,.11,.02,.22,.02,.32,.02,.31,0,.58-.04,.8-.12,.23-.08,.41-.18,.56-.3,.15-.13,.26-.27,.33-.43,.07-.16,.11-.32,.11-.49,0-.12-.02-.22-.06-.31-.04-.09-.09-.17-.15-.24-.06-.07-.13-.13-.21-.18-.08-.05-.15-.09-.23-.13-.14-.07-.28-.13-.42-.19-.14-.05-.28-.11-.42-.18-.09-.04-.16-.08-.22-.13-.06-.05-.11-.09-.15-.14-.04-.05-.06-.1-.08-.16-.02-.06-.02-.11-.02-.17,0-.11,.02-.2,.06-.29,.04-.09,.1-.17,.18-.24,.08-.07,.18-.12,.3-.16,.12-.04,.25-.06,.4-.06,.07,0,.14,0,.2,.02,.07,.01,.13,.02,.18,.04,.06,.02,.11,.04,.16,.06,.05,.02,.09,.05,.12,.07,.03,.02,.06,.05,.08,.07,.02,.02,.03,.05,.03,.07l-.03,.58h.33l.23-1.04c-.08-.02-.17-.05-.27-.08-.1-.03-.2-.05-.31-.07Z"/>
        <path class="cls-6" d="M51.3,69.16l.39,.12s.04,.02,.05,.03c.02,.01,.03,.03,.03,.05,0,.04-.01,.08-.04,.14-.03,.06-.06,.12-.11,.19s-.1,.14-.15,.21c-.06,.07-.12,.15-.18,.21l-.88-1.05,.75-.39s.09-.1,.12-.16,.07-.11,.1-.18c.03-.07,.05-.13,.07-.21,.02-.07,.02-.15,.02-.24,0-.1-.02-.2-.07-.3-.04-.09-.11-.18-.19-.24-.08-.07-.18-.12-.3-.16-.12-.04-.25-.06-.4-.06-.13,0-.27,.02-.42,.07-.14,.05-.27,.11-.39,.2-.12,.09-.21,.2-.29,.34-.08,.13-.11,.29-.11,.46,0,.06,0,.12,.02,.18,.01,.06,.03,.13,.06,.2s.07,.15,.13,.23c.06,.08,.13,.17,.21,.27l-.73,.4c-.07,.06-.12,.13-.18,.21-.05,.08-.1,.16-.13,.24-.04,.08-.06,.16-.08,.25-.02,.09-.03,.17-.03,.24,0,.15,.03,.28,.08,.4,.05,.12,.13,.22,.23,.3,.1,.08,.21,.15,.34,.19,.13,.04,.27,.07,.42,.07,.14,0,.27-.02,.39-.05,.13-.03,.25-.08,.36-.14,.12-.06,.23-.13,.34-.21,.11-.08,.22-.17,.32-.28,0,0,0,.01,.02,.03,.01,.02,.03,.04,.05,.06s.04,.05,.06,.08c.02,.03,.04,.06,.06,.08,.02,.03,.04,.05,.06,.07,.02,.02,.03,.04,.04,.04,.03,.04,.07,.08,.1,.11,.03,.03,.06,.05,.1,.07,.04,.02,.08,.03,.12,.04,.05,0,.11,.01,.18,.01h.62l.05-.21-.46-.13s-.04-.02-.07-.03c-.02-.01-.04-.03-.06-.05-.02-.02-.04-.04-.06-.06-.02-.02-.03-.04-.05-.06l-.38-.43s.03-.03,.06-.07c.03-.04,.07-.08,.12-.13,.04-.05,.09-.1,.14-.16,.05-.06,.1-.12,.15-.18,.05-.06,.1-.11,.14-.17,.04-.05,.08-.1,.11-.14,.04-.05,.07-.09,.11-.12,.04-.03,.08-.05,.12-.07l.35-.12,.05-.21h-1.47l-.05,.21Zm-1.38-1.32c.03-.08,.07-.15,.13-.21s.12-.11,.19-.14c.07-.03,.15-.05,.24-.05,.14,0,.25,.04,.33,.12s.12,.19,.12,.34c0,.09-.01,.18-.03,.27-.02,.09-.06,.18-.11,.26-.05,.08-.12,.16-.21,.23-.09,.07-.2,.14-.32,.2-.07-.08-.13-.15-.18-.21-.05-.07-.09-.13-.12-.19-.03-.06-.05-.12-.07-.18-.01-.06-.02-.12-.02-.18,0-.1,.02-.19,.05-.27Zm.77,2.83c-.07,.05-.15,.1-.23,.13s-.17,.06-.27,.08c-.1,.02-.21,.03-.33,.03-.09,0-.17-.01-.25-.05-.08-.03-.15-.07-.21-.13-.06-.05-.11-.12-.14-.2-.04-.08-.05-.16-.05-.26,0-.12,.02-.24,.05-.34,.04-.1,.08-.19,.15-.28,.06-.08,.14-.15,.22-.22,.09-.06,.18-.12,.28-.18l1,1.21c-.08,.07-.15,.13-.22,.18Z"/>
        <path class="cls-12" d="M57.58,67.19c-.11-.02-.22-.04-.33-.05-.11-.01-.23-.02-.34-.02-.21,0-.42,.03-.61,.1-.19,.06-.36,.15-.5,.27-.14,.11-.26,.25-.34,.4-.08,.15-.13,.32-.13,.5,0,.1,.02,.19,.05,.28,.03,.09,.07,.17,.13,.24,.06,.07,.12,.14,.2,.2,.08,.06,.16,.11,.26,.15,.07,.03,.14,.07,.21,.09,.07,.03,.14,.06,.21,.09,.07,.03,.15,.06,.22,.09,.07,.03,.15,.06,.23,.1,.14,.07,.24,.15,.32,.24,.08,.09,.11,.21,.11,.34s-.03,.25-.08,.35c-.05,.1-.12,.19-.22,.26-.09,.07-.2,.12-.34,.16-.13,.04-.28,.06-.44,.06-.06,0-.13,0-.2-.02-.07-.01-.14-.03-.21-.05-.07-.02-.13-.04-.2-.07-.06-.03-.12-.06-.17-.09-.05-.03-.09-.06-.11-.09-.03-.03-.04-.06-.04-.09l.03-.62h-.33l-.23,1.08c.1,.04,.21,.07,.33,.11,.12,.03,.23,.07,.35,.09,.12,.03,.23,.05,.34,.07,.11,.02,.22,.02,.32,.02,.31,0,.58-.04,.8-.12,.23-.08,.41-.18,.56-.3,.15-.13,.26-.27,.33-.43,.07-.16,.11-.32,.11-.49,0-.12-.02-.22-.06-.31-.04-.09-.09-.17-.15-.24-.06-.07-.13-.13-.21-.18-.08-.05-.15-.09-.23-.13-.14-.07-.28-.13-.42-.19-.14-.05-.28-.11-.42-.18-.09-.04-.16-.08-.22-.13-.06-.05-.11-.09-.15-.14-.04-.05-.06-.1-.08-.16s-.02-.11-.02-.17c0-.11,.02-.2,.06-.29,.04-.09,.1-.17,.18-.24,.08-.07,.18-.12,.3-.16,.12-.04,.25-.06,.4-.06,.07,0,.14,0,.2,.02,.07,.01,.13,.02,.18,.04,.06,.02,.11,.04,.16,.06,.05,.02,.09,.05,.12,.07,.03,.02,.06,.05,.08,.07,.02,.02,.03,.05,.03,.07l-.03,.58h.33l.23-1.04c-.08-.02-.17-.05-.27-.08-.1-.03-.2-.05-.31-.07Z"/>
        <path class="cls-7" d="M61.9,68.76c.08-.18,.12-.38,.12-.6,0-.16-.04-.3-.11-.42-.07-.12-.17-.22-.29-.3-.12-.08-.27-.14-.43-.18-.17-.04-.35-.06-.54-.06h-1.58l-.05,.21,.44,.14s.05,.03,.07,.05c.01,.02,.02,.05,0,.09l-.68,3.09s-.03,.07-.06,.1c-.03,.02-.06,.04-.09,.05l-.43,.14-.05,.21h1.7l.05-.21-.47-.14s-.06-.03-.07-.05-.02-.05,0-.09l.3-1.33s.08,.05,.14,.07c.06,.02,.12,.04,.19,.06,.07,.02,.13,.03,.2,.04,.07,.01,.12,.02,.17,.02,.23,0,.43-.04,.63-.11,.19-.07,.36-.18,.5-.31,.14-.13,.26-.29,.34-.47Zm-.59-.14c-.04,.12-.1,.23-.17,.33s-.18,.18-.3,.24-.26,.09-.43,.09c-.05,0-.1,0-.16,0-.06,0-.12,0-.18-.01-.06,0-.12-.01-.17-.02-.05,0-.09-.01-.12-.02l.38-1.68h.33c.17,0,.31,.02,.42,.06,.11,.04,.2,.09,.27,.15,.07,.06,.12,.14,.14,.23,.03,.09,.04,.18,.04,.27,0,.12-.02,.24-.06,.36Z"/>
        <path class="cls-4" d="M65.25,70.89s-.03-.06-.03-.09l-.62-3.64h-.32l-.48,.68-1.81,2.96s-.05,.06-.08,.09c-.03,.03-.07,.05-.1,.07l-.28,.13-.05,.21h1.3l.05-.21-.47-.18,.62-1.04h1.53l.18,1.05-.49,.16-.05,.21h1.46l.05-.21-.32-.12s-.05-.03-.07-.06Zm-2.08-1.38l.95-1.59,.05,.03,.05,.36,.21,1.2h-1.25Z"/>
      </g>
      <g>
        <path class="cls-2" d="M75.54,64.14c-.81,.82-3.01,.76-3.55,.73-2.95-1.91-6.27-3.28-9.8-4.21,.04-.04,.08-.08,.12-.12,.58-.63,1.08-1.34,1.51-2.15,.45,.19,.9,.39,1.35,.6,.45,.21,.92,.45,1.42,.71l1.74,.82c.24,.09,.59,.09,1.06-.02,.47-.11,.9-.26,1.29-.46,.39-.2,.66-.43,.82-.67,.15-.25,.03-.47-.37-.66-.12-.05-.22-.1-.32-.16-.09-.06-.2-.11-.32-.16h.04c-.95-.45-1.88-.88-2.8-1.29-.92-.41-1.88-.81-2.87-1.19,.28-.8,.53-1.65,.74-2.54,.21-.89,.41-1.83,.6-2.82l1.95-10.14c.02-.35-.15-.72-.53-1.1-.38-.38-.83-.71-1.37-.99-.53-.28-1.06-.5-1.6-.64-.53-.14-.93-.15-1.19-.04-.05,1.11-.12,2.18-.23,3.21-.11,1.03-.22,2.02-.34,2.96-.05,.12-.1,.24-.16,.35-.06,.12-.11,.24-.16,.35h.04c-.24,.54-.49,1.1-.76,1.67-.27,.57-.58,1.1-.92,1.6-.34,.5-.74,.95-1.21,1.35-.46,.4-1,.69-1.61,.85h-.39c-.17,0-.28-.14-.35-.43-.12-.38-.16-.87-.12-1.47,.04-.6,.11-1.25,.23-1.95,.12-.7,.26-1.4,.43-2.11,.17-.71,.32-1.35,.46-1.92,.09-.35,.18-.69,.25-.99,.07-.31,.12-.56,.14-.74,.02-.35-.15-.72-.51-1.1-.37-.38-.81-.71-1.33-.99-.52-.28-1.03-.5-1.54-.64-.51-.14-.88-.17-1.12-.07l-.18,.21c.02,.69,0,1.41-.09,2.18-.08,.77-.18,1.56-.3,2.36-.14,1.14-.28,2.25-.41,3.33-.13,1.09-.16,2-.09,2.73,.02,.21,.06,.42,.11,.62,.05,.2,.09,.4,.14,.59,.26,.8,.71,1.48,1.35,2.04,.64,.56,1.42,.85,2.34,.87,.45,0,.86-.04,1.24-.12,.38-.08,.72-.2,1.03-.34,.31-.14,.57-.29,.8-.44,.22-.15,.41-.29,.55-.41,.21-.19,.41-.38,.59-.59,.18-.2,.36-.41,.55-.62-.28,1.58-.67,3.1-1.17,4.54-.57-.17-1.11-.31-1.61-.43-.51-.12-1.03-.21-1.56-.28-.53-.07-1.09-.12-1.68-.16-.59-.04-1.25-.05-1.99-.05-.93,0-1.8,.08-2.62,.25-.19-.13-.36-.28-.52-.46-.37-.43-.64-.96-.83-1.6-.35-1.04-.51-2.29-.48-3.76,.04-1.47,.19-3.01,.46-4.63,.27-1.62,.63-3.24,1.08-4.86,.45-1.62,.92-3.12,1.42-4.5,.5-1.38,.98-2.57,1.45-3.56,.47-.99,.87-1.67,1.21-2.02,0-.07-.07-.18-.2-.34-.13-.15-.31-.32-.53-.5-.23-.18-.49-.37-.78-.57-.3-.2-.59-.4-.87-.59-.35-.28-.76-.51-1.22-.69-.46-.18-.77-.2-.94-.05-2.18,2.77-4.06,5.66-5.66,8.67-1.6,3.02-3.1,6.11-4.52,9.28l-.89,1.99c-.33,.73-.66,1.48-.99,2.23-.33,.76-.65,1.51-.96,2.27-.05,.09-.11,.24-.2,.44-.08,.2-.16,.41-.23,.62-.07,.21-.14,.41-.21,.59-.07,.18-.11,.3-.11,.37-.02-.07-.03-.18-.02-.34,.01-.15,.03-.31,.05-.48,.24-1.96,.55-3.91,.94-5.83,.39-1.93,.82-3.81,1.29-5.66,.43-1.65,.87-3.45,1.33-5.37,.46-1.93,.89-4.12,1.29-6.58-.02-.21-.22-.5-.59-.87-.37-.37-.78-.7-1.24-1.01-.46-.31-.89-.55-1.29-.73-.4-.18-.64-.18-.71-.02v.07l-.11,.67c-.9,1.32-1.82,2.77-2.77,4.33-.95,1.56-1.9,3.16-2.87,4.79-1.23,2.06-2.47,4.09-3.72,6.08-1.25,2-2.5,3.79-3.72,5.37-1.23,1.58-2.43,2.87-3.6,3.85-1.17,.98-2.28,1.47-3.32,1.47-1.11-.14-1.96-.46-2.55-.96-.59-.5-1.06-1.08-1.42-1.74-.09-.19-.18-.38-.27-.59-.08-.2-.16-.4-.23-.59-.05-.21-.1-.43-.16-.66-.06-.22-.11-.46-.16-.69-.02-.05-.04-.13-.04-.25-.14-.9-.11-1.98,.09-3.25,.2-1.26,.53-2.58,.99-3.94,.46-1.36,1.05-2.7,1.77-4.03,.72-1.32,1.54-2.51,2.47-3.55,.92-1.04,1.93-1.87,3.03-2.48,1.1-.61,2.26-.9,3.49-.85,.45,.05,.81,.23,1.08,.55,.27,.32,.47,.69,.59,1.12,.19,.52,.29,1.06,.3,1.61,.01,.56,0,.96-.02,1.22,.05,.47,.25,.74,.6,.8,.35,.06,.74-.01,1.17-.21,.43-.2,.82-.5,1.19-.89,.37-.39,.6-.81,.69-1.26v-.04c.07-.31,.02-.7-.14-1.17-.14-.45-.39-.93-.74-1.44-.35-.51-.78-.98-1.28-1.4-.5-.43-1.05-.78-1.67-1.06-.62-.28-1.27-.44-1.95-.46-1.63-.02-3.12,.31-4.47,1.01-1.35,.7-2.55,1.63-3.62,2.78-1.06,1.16-1.98,2.48-2.75,3.96-.77,1.48-1.39,2.98-1.86,4.5-.47,1.53-.79,3.02-.94,4.47-.15,1.45-.14,2.73,.05,3.81,.05,.21,.11,.46,.18,.74,.07,.28,.15,.57,.25,.85,.21,.69,.51,1.41,.9,2.16,.39,.76,.87,1.45,1.44,2.09,.57,.64,1.23,1.16,1.99,1.58,.76,.41,1.62,.62,2.59,.62,.95,.02,1.83-.16,2.66-.55,.83-.39,1.59-.89,2.29-1.49,.7-.6,1.34-1.27,1.93-2,.59-.73,1.14-1.42,1.63-2.06,.26-.33,.49-.64,.69-.92,.2-.28,.35-.46,.44-.53,.64-.76,1.19-1.5,1.67-2.22,.47-.72,.93-1.44,1.38-2.15h-.04c.87-1.32,1.7-2.65,2.48-3.99,.78-1.34,1.55-2.69,2.31-4.06-.05,.09-.07,.17-.07,.21-.43,1.68-.85,3.38-1.26,5.09-.41,1.71-.76,3.36-1.05,4.93-.28,1.57-.46,3.02-.53,4.33-.07,1.31,.04,2.39,.32,3.25,.33,.99,.9,1.64,1.7,1.95v-.04c.5,.19,.98,.25,1.44,.2,.46-.06,.87-.19,1.24-.39,.37-.2,.69-.46,.96-.76,.27-.31,.48-.62,.62-.92,1.09-2.48,2.26-4.99,3.53-7.52,1.26-2.53,2.64-5.05,4.13-7.56-.31,1.25-.58,2.52-.82,3.8-.24,1.28-.4,2.53-.5,3.76-.09,1.23-.11,2.41-.04,3.53,.07,1.12,.26,2.16,.57,3.1,.4,1.21,1.01,2.21,1.83,3.02,.19,.18,.39,.35,.6,.51-.27,.15-.52,.31-.75,.48-.72,.54-1.22,1.19-1.51,1.95-.2,.53-.26,1.08-.18,1.67-20.33,.42-40.97,8.46-40.97,8.46v7.4c4.87-4.81,21.27-10.68,21.27-10.68,7.38-2.46,14.19-3.48,20.21-3.66,.21,.37,.48,.7,.81,.99,.54,.47,1.18,.85,1.9,1.14,.72,.28,1.5,.5,2.32,.64,.83,.14,1.64,.21,2.45,.21,1.32,0,2.51-.11,3.55-.34,1.04-.23,1.96-.56,2.75-.99,.24-.13,.47-.28,.7-.43,6.18,1.25,10.34,3.1,11.84,3.83,2.48,1.55,3.68,.13,3.68,.13,.94-1.02-.92-1.51-.92-1.51Zm-27.21-6.06c.34-.44,.85-.8,1.53-1.08,.67-.28,1.44-.5,2.31-.64,.51-.08,1.02-.14,1.52-.18,.44,0,.87-.01,1.27-.03,.87,0,1.67,.07,2.4,.18,.8,.12,1.6,.28,2.38,.5-.58,1.11-1.25,2.07-2.01,2.88-3.15-.51-6.41-.75-9.69-.77,0-.32,.1-.6,.3-.86Zm4.56,3.74c-.43,0-.89-.03-1.38-.09-.5-.06-.97-.17-1.42-.34-.45-.17-.85-.39-1.19-.67-.1-.08-.19-.17-.28-.27,2.74,.01,5.29,.19,7.64,.48-.95,.59-2.08,.89-3.38,.89Z"/>
        <path class="cls-2" d="M32.55,67.63s.05-.03,.08-.05l.44-.16,.04-.21h-1.46l-.04,.21,.43,.16s.05,.03,.07,.05,.02,.05,.01,.08l-.6,2.71h-.05l-.14-.37-1.36-2.84h-1.14l-.05,.21,.45,.15s.06,.03,.07,.05c.01,.02,.02,.05,0,.09l-.68,3.07s-.03,.07-.05,.09c-.02,.02-.05,.04-.09,.05l-.44,.16-.05,.21h1.46l.05-.21-.43-.16s-.03-.01-.04-.02c-.01,0-.02-.01-.03-.02,0,0-.01-.02-.01-.04,0-.02,0-.03,0-.06l.64-2.91h.05l.14,.38,1.47,3.07h.3l.22-.66,.65-2.94s.03-.07,.05-.09Z"/>
        <path class="cls-2" d="M36.26,70.89s-.03-.06-.03-.09l-.62-3.64h-.32l-.48,.68-1.81,2.96s-.05,.06-.08,.09c-.03,.03-.07,.05-.1,.07l-.28,.13-.05,.21h1.3l.05-.21-.47-.18,.62-1.04h1.53l.18,1.05-.49,.16-.05,.21h1.46l.05-.21-.32-.12s-.05-.03-.07-.06Zm-2.08-1.38l.95-1.59,.05,.03,.05,.36,.21,1.2h-1.25Z"/>
        <path class="cls-2" d="M39.46,67.21h-1.72l-.05,.21,.46,.14s.05,.03,.07,.05c.01,.02,.02,.05,0,.09l-.68,3.09s-.03,.07-.05,.09c-.02,.02-.05,.04-.09,.05l-.45,.14-.05,.21h1.72l.05-.21-.46-.14s-.06-.03-.07-.05c-.01-.02-.01-.05,0-.09l.68-3.09s.02-.05,.04-.07c.02-.02,.04-.04,.07-.05,.02-.01,.05-.02,.08-.03,.03,0,.06-.02,.08-.03l.33-.1,.05-.21Z"/>
        <path class="cls-2" d="M42.11,70.81s-.01,.03-.03,.05c-.01,.02-.02,.03-.04,.04-.01,.01-.03,.02-.04,.02-.02,0-.03,0-.05,0h-1.52l.72-3.24s.03-.07,.06-.09c.03-.02,.06-.04,.09-.05l.43-.14,.05-.21h-1.68l-.04,.21,.44,.14s.06,.03,.07,.05c.01,.02,.01,.05,0,.08l-.68,3.09s-.03,.07-.06,.1c-.03,.02-.06,.04-.09,.05l-.43,.14-.05,.21h3.2l.29-1.3h-.34l-.31,.83Z"/>
        <path class="cls-2" d="M45.87,67.19c-.11-.02-.22-.04-.33-.05-.11-.01-.23-.02-.34-.02-.21,0-.42,.03-.61,.1-.19,.06-.36,.15-.5,.27-.14,.11-.26,.25-.34,.4-.08,.15-.13,.32-.13,.5,0,.1,.02,.19,.05,.28,.03,.09,.07,.17,.13,.24,.06,.07,.12,.14,.2,.2,.08,.06,.16,.11,.26,.15,.07,.03,.14,.07,.21,.09,.07,.03,.14,.06,.21,.09,.07,.03,.15,.06,.22,.09,.07,.03,.15,.06,.23,.1,.14,.07,.24,.15,.32,.24,.08,.09,.11,.21,.11,.34s-.03,.25-.08,.35c-.05,.1-.12,.19-.22,.26-.09,.07-.2,.12-.34,.16-.13,.04-.28,.06-.44,.06-.06,0-.13,0-.2-.02-.07-.01-.14-.03-.21-.05-.07-.02-.13-.04-.2-.07-.06-.03-.12-.06-.17-.09s-.09-.06-.11-.09c-.03-.03-.04-.06-.04-.09l.03-.62h-.33l-.23,1.08c.1,.04,.21,.07,.33,.11,.12,.03,.23,.07,.35,.09,.12,.03,.23,.05,.34,.07,.11,.02,.22,.02,.32,.02,.31,0,.58-.04,.8-.12,.23-.08,.41-.18,.56-.3,.15-.13,.26-.27,.33-.43,.07-.16,.11-.32,.11-.49,0-.12-.02-.22-.06-.31-.04-.09-.09-.17-.15-.24-.06-.07-.13-.13-.21-.18-.08-.05-.15-.09-.23-.13-.14-.07-.28-.13-.42-.19-.14-.05-.28-.11-.42-.18-.09-.04-.16-.08-.22-.13-.06-.05-.11-.09-.15-.14-.04-.05-.06-.1-.08-.16-.02-.06-.02-.11-.02-.17,0-.11,.02-.2,.06-.29,.04-.09,.1-.17,.18-.24,.08-.07,.18-.12,.3-.16,.12-.04,.25-.06,.4-.06,.07,0,.14,0,.2,.02,.07,.01,.13,.02,.18,.04,.06,.02,.11,.04,.16,.06,.05,.02,.09,.05,.12,.07,.03,.02,.06,.05,.08,.07,.02,.02,.03,.05,.03,.07l-.03,.58h.33l.23-1.04c-.08-.02-.17-.05-.27-.08-.1-.03-.2-.05-.31-.07Z"/>
        <path class="cls-2" d="M51.3,69.16l.39,.12s.04,.02,.05,.03c.02,.01,.03,.03,.03,.05,0,.04-.01,.08-.04,.14-.03,.06-.06,.12-.11,.19s-.1,.14-.15,.21c-.06,.07-.12,.15-.18,.21l-.88-1.05,.75-.39s.09-.1,.12-.16,.07-.11,.1-.18c.03-.07,.05-.13,.07-.21,.02-.07,.02-.15,.02-.24,0-.1-.02-.2-.07-.3-.04-.09-.11-.18-.19-.24-.08-.07-.18-.12-.3-.16-.12-.04-.25-.06-.4-.06-.13,0-.27,.02-.42,.07-.14,.05-.27,.11-.39,.2-.12,.09-.21,.2-.29,.34-.08,.13-.11,.29-.11,.46,0,.06,0,.12,.02,.18,.01,.06,.03,.13,.06,.2s.07,.15,.13,.23c.06,.08,.13,.17,.21,.27l-.73,.4c-.07,.06-.12,.13-.18,.21-.05,.08-.1,.16-.13,.24-.04,.08-.06,.16-.08,.25-.02,.09-.03,.17-.03,.24,0,.15,.03,.28,.08,.4,.05,.12,.13,.22,.23,.3,.1,.08,.21,.15,.34,.19,.13,.04,.27,.07,.42,.07,.14,0,.27-.02,.39-.05,.13-.03,.25-.08,.36-.14,.12-.06,.23-.13,.34-.21,.11-.08,.22-.17,.32-.28,0,0,0,.01,.02,.03,.01,.02,.03,.04,.05,.06s.04,.05,.06,.08c.02,.03,.04,.06,.06,.08,.02,.03,.04,.05,.06,.07,.02,.02,.03,.04,.04,.04,.03,.04,.07,.08,.1,.11,.03,.03,.06,.05,.1,.07,.04,.02,.08,.03,.12,.04,.05,0,.11,.01,.18,.01h.62l.05-.21-.46-.13s-.04-.02-.07-.03c-.02-.01-.04-.03-.06-.05-.02-.02-.04-.04-.06-.06-.02-.02-.03-.04-.05-.06l-.38-.43s.03-.03,.06-.07c.03-.04,.07-.08,.12-.13,.04-.05,.09-.1,.14-.16,.05-.06,.1-.12,.15-.18,.05-.06,.1-.11,.14-.17,.04-.05,.08-.1,.11-.14,.04-.05,.07-.09,.11-.12,.04-.03,.08-.05,.12-.07l.35-.12,.05-.21h-1.47l-.05,.21Zm-1.38-1.32c.03-.08,.07-.15,.13-.21s.12-.11,.19-.14c.07-.03,.15-.05,.24-.05,.14,0,.25,.04,.33,.12s.12,.19,.12,.34c0,.09-.01,.18-.03,.27-.02,.09-.06,.18-.11,.26-.05,.08-.12,.16-.21,.23-.09,.07-.2,.14-.32,.2-.07-.08-.13-.15-.18-.21-.05-.07-.09-.13-.12-.19-.03-.06-.05-.12-.07-.18-.01-.06-.02-.12-.02-.18,0-.1,.02-.19,.05-.27Zm.77,2.83c-.07,.05-.15,.1-.23,.13s-.17,.06-.27,.08c-.1,.02-.21,.03-.33,.03-.09,0-.17-.01-.25-.05-.08-.03-.15-.07-.21-.13-.06-.05-.11-.12-.14-.2-.04-.08-.05-.16-.05-.26,0-.12,.02-.24,.05-.34,.04-.1,.08-.19,.15-.28,.06-.08,.14-.15,.22-.22,.09-.06,.18-.12,.28-.18l1,1.21c-.08,.07-.15,.13-.22,.18Z"/>
        <path class="cls-2" d="M57.58,67.19c-.11-.02-.22-.04-.33-.05-.11-.01-.23-.02-.34-.02-.21,0-.42,.03-.61,.1-.19,.06-.36,.15-.5,.27-.14,.11-.26,.25-.34,.4-.08,.15-.13,.32-.13,.5,0,.1,.02,.19,.05,.28,.03,.09,.07,.17,.13,.24,.06,.07,.12,.14,.2,.2,.08,.06,.16,.11,.26,.15,.07,.03,.14,.07,.21,.09,.07,.03,.14,.06,.21,.09,.07,.03,.15,.06,.22,.09,.07,.03,.15,.06,.23,.1,.14,.07,.24,.15,.32,.24,.08,.09,.11,.21,.11,.34s-.03,.25-.08,.35c-.05,.1-.12,.19-.22,.26-.09,.07-.2,.12-.34,.16-.13,.04-.28,.06-.44,.06-.06,0-.13,0-.2-.02-.07-.01-.14-.03-.21-.05-.07-.02-.13-.04-.2-.07-.06-.03-.12-.06-.17-.09-.05-.03-.09-.06-.11-.09-.03-.03-.04-.06-.04-.09l.03-.62h-.33l-.23,1.08c.1,.04,.21,.07,.33,.11,.12,.03,.23,.07,.35,.09,.12,.03,.23,.05,.34,.07,.11,.02,.22,.02,.32,.02,.31,0,.58-.04,.8-.12,.23-.08,.41-.18,.56-.3,.15-.13,.26-.27,.33-.43,.07-.16,.11-.32,.11-.49,0-.12-.02-.22-.06-.31-.04-.09-.09-.17-.15-.24-.06-.07-.13-.13-.21-.18-.08-.05-.15-.09-.23-.13-.14-.07-.28-.13-.42-.19-.14-.05-.28-.11-.42-.18-.09-.04-.16-.08-.22-.13-.06-.05-.11-.09-.15-.14-.04-.05-.06-.1-.08-.16s-.02-.11-.02-.17c0-.11,.02-.2,.06-.29,.04-.09,.1-.17,.18-.24,.08-.07,.18-.12,.3-.16,.12-.04,.25-.06,.4-.06,.07,0,.14,0,.2,.02,.07,.01,.13,.02,.18,.04,.06,.02,.11,.04,.16,.06,.05,.02,.09,.05,.12,.07,.03,.02,.06,.05,.08,.07,.02,.02,.03,.05,.03,.07l-.03,.58h.33l.23-1.04c-.08-.02-.17-.05-.27-.08-.1-.03-.2-.05-.31-.07Z"/>
        <path class="cls-2" d="M61.9,68.76c.08-.18,.12-.38,.12-.6,0-.16-.04-.3-.11-.42-.07-.12-.17-.22-.29-.3-.12-.08-.27-.14-.43-.18-.17-.04-.35-.06-.54-.06h-1.58l-.05,.21,.44,.14s.05,.03,.07,.05c.01,.02,.02,.05,0,.09l-.68,3.09s-.03,.07-.06,.1c-.03,.02-.06,.04-.09,.05l-.43,.14-.05,.21h1.7l.05-.21-.47-.14s-.06-.03-.07-.05-.02-.05,0-.09l.3-1.33s.08,.05,.14,.07c.06,.02,.12,.04,.19,.06,.07,.02,.13,.03,.2,.04,.07,.01,.12,.02,.17,.02,.23,0,.43-.04,.63-.11,.19-.07,.36-.18,.5-.31,.14-.13,.26-.29,.34-.47Zm-.59-.14c-.04,.12-.1,.23-.17,.33s-.18,.18-.3,.24-.26,.09-.43,.09c-.05,0-.1,0-.16,0-.06,0-.12,0-.18-.01-.06,0-.12-.01-.17-.02-.05,0-.09-.01-.12-.02l.38-1.68h.33c.17,0,.31,.02,.42,.06,.11,.04,.2,.09,.27,.15,.07,.06,.12,.14,.14,.23,.03,.09,.04,.18,.04,.27,0,.12-.02,.24-.06,.36Z"/>
        <path class="cls-2" d="M65.25,70.89s-.03-.06-.03-.09l-.62-3.64h-.32l-.48,.68-1.81,2.96s-.05,.06-.08,.09c-.03,.03-.07,.05-.1,.07l-.28,.13-.05,.21h1.3l.05-.21-.47-.18,.62-1.04h1.53l.18,1.05-.49,.16-.05,.21h1.46l.05-.21-.32-.12s-.05-.03-.07-.06Zm-2.08-1.38l.95-1.59,.05,.03,.05,.36,.21,1.2h-1.25Z"/>
      </g>
    </g>
    <path class="cls-2" d="M89.88,44.22l-6.58,7.74s.02,1.55,1.15,2.88l-8.91,9.3,.92,1.51,9.29-9.74c.76,.43,1.76,.74,3.06,.8l6.07-7.24,.11-.66s-.9-3.62-5.12-4.6Zm-13.61,19.84c-.28,.06-.14-.19-.14-.19,0,0,6.28-6.62,6.56-6.87,.28-.26,.33,.06,.33,.06,0,0-6.42,6.94-6.75,7.01Zm14.02-16.42c-.03,.08-.56,.67-.62,.74l-4.15,4.46c-.31,.33-.85,.28-1.09-.1-.16-.26-.13-.6,.07-.83l4.49-4.92c.09-.1,.15-.23,.17-.37,.05-.38,.21-1.15,.58-1.09h.07c.28,.05,.51,.26,.57,.53,.17,.72,0,1.33-.11,1.59Z"/>
  </g>
</svg>