<?xml version="1.0" encoding="UTF-8"?>
<svg id="Layer_1" data-name="Layer 1" xmlns="http://www.w3.org/2000/svg" xmlns:xlink="http://www.w3.org/1999/xlink" viewBox="0 0 100 100">
  <defs>
    <style>
      .cls-1 {
        fill: #11364c;
      }

      .cls-1, .cls-2, .cls-3, .cls-4, .cls-5 {
        stroke-width: 0px;
      }

      .cls-2 {
        fill: url(#linear-gradient);
      }

      .cls-3 {
        fill: url(#linear-gradient-4);
      }

      .cls-4 {
        fill: url(#linear-gradient-2);
      }

      .cls-5 {
        fill: url(#linear-gradient-3);
      }
    </style>
    <linearGradient id="linear-gradient" x1="5" y1="49.99" x2="32.3" y2="49.99" gradientUnits="userSpaceOnUse">
      <stop offset="0" stop-color="#eab460"/>
      <stop offset=".08" stop-color="#eab460"/>
      <stop offset=".15" stop-color="#eab562"/>
      <stop offset=".2" stop-color="#edbb6b"/>
      <stop offset=".24" stop-color="#f2c57a"/>
      <stop offset=".27" stop-color="#f8d490"/>
      <stop offset=".3" stop-color="#ffe3a6"/>
      <stop offset=".38" stop-color="#eee085"/>
      <stop offset=".43" stop-color="#eedd81"/>
      <stop offset=".43" stop-color="#efdd81"/>
      <stop offset=".47" stop-color="#f0d678"/>
      <stop offset=".51" stop-color="#f2cd6c"/>
      <stop offset=".68" stop-color="#b9782e"/>
      <stop offset=".92" stop-color="#d58d32"/>
      <stop offset="1" stop-color="#d58d32"/>
    </linearGradient>
    <linearGradient id="linear-gradient-2" x1="34.14" y1="50" x2="64.85" y2="50" xlink:href="#linear-gradient"/>
    <linearGradient id="linear-gradient-3" x1="66.96" x2="95" xlink:href="#linear-gradient"/>
    <linearGradient id="linear-gradient-4" x1="5" y1="50" x2="95" y2="50" gradientUnits="userSpaceOnUse">
      <stop offset="0" stop-color="#eab460"/>
      <stop offset=".08" stop-color="#eab460"/>
      <stop offset=".15" stop-color="#eab562"/>
      <stop offset=".2" stop-color="#edbb6b"/>
      <stop offset=".24" stop-color="#f2c57a"/>
      <stop offset=".27" stop-color="#f8d490"/>
      <stop offset=".3" stop-color="#ffe3a6"/>
      <stop offset=".51" stop-color="#eee085"/>
      <stop offset=".64" stop-color="#eedd81"/>
      <stop offset=".64" stop-color="#efdd81"/>
      <stop offset=".67" stop-color="#f0d678"/>
      <stop offset=".7" stop-color="#f2cd6c"/>
      <stop offset=".92" stop-color="#d58d32"/>
      <stop offset="1" stop-color="#d58d32"/>
    </linearGradient>
  </defs>
  <rect class="cls-1" width="100" height="100" rx="20" ry="20"/>
  <g>
    <g>
      <path class="cls-2" d="M12.37,49.19v16.26h-7.37v-30.93h17.17c1.9,0,3.58.25,5.05.75,1.47.5,2.56,1.35,3.28,2.56.76,1.21,1.25,2.32,1.47,3.35.22,1.03.34,2.18.34,3.48,0,1.18-.08,2.21-.25,3.1-.17.9-.64,2.04-1.41,3.41-.76,1.38-1.94,2.32-3.55,2.84-1.61.52-3.75.78-6.44.78h-3.71l-4.57-5.6ZM12.37,48.24h6.51c1.85,0,3.12-.15,3.81-.44.72-.28,1.2-.68,1.46-1.2.26-.52.39-1.21.39-2.06,0-.76-.12-1.39-.36-1.9-.28-.46-.8-.82-1.57-1.06-.77-.25-1.96-.37-3.59-.37h-6.66v7.04Z"/>
      <path class="cls-4" d="M49.83,34.29c1.04,0,2.11.07,3.2.2,1.1.13,2.16.36,3.19.67,1.03.32,1.99.75,2.89,1.3.89.55,1.67,1.24,2.33,2.06,1.21,1.5,2.08,3.31,2.61,5.42.53,2.11.8,4.26.8,6.44,0,2.63-.34,5-1.01,7.11-.67,2.11-1.62,3.77-2.82,4.98-1.12,1.18-2.39,1.97-3.79,2.36-1.33.35-2.61.58-3.81.7-1.21.11-2.37.17-3.48.17-2.36,0-4.54-.23-6.54-.68-2-.46-3.69-1.29-5.07-2.5-1.36-1.21-2.4-3.02-3.12-5.44-.72-2.42-1.07-4.91-1.07-7.48v-.83c0-.25.01-.45.04-.62l.53-3.41c.28-1.9,1.03-3.71,2.23-5.44.77-1.12,1.66-2.02,2.68-2.68,1.01-.66,2.08-1.16,3.2-1.51,1.12-.34,2.28-.57,3.48-.67,1.19-.11,2.37-.16,3.54-.16ZM41.68,49.4c0,1.81.22,3.43.65,4.85.44,1.46,1.31,2.61,2.61,3.44,1.31.84,2.84,1.25,4.59,1.25,1.29,0,2.54-.28,3.75-.84,1.21-.56,2.13-1.39,2.76-2.49.63-1.04,1-2.02,1.1-2.93.11-.9.18-1.47.21-1.72.03-.25.04-.47.04-.66,0-1.54-.21-3.01-.63-4.39-.42-1.38-1.14-2.5-2.17-3.36-.66-.46-1.5-.82-2.51-1.08-1.01-.26-2-.39-2.97-.39s-2.08.22-3.37.65c-1.29.42-2.29,1.32-3,2.71-.71,1.38-1.06,3.04-1.06,4.96Z"/>
      <path class="cls-5" d="M95,34.53l-3.79,6.07h-12.39c-.8-.06-1.47-.02-2,.12-.53.13-.97.33-1.3.59-.33.26-.56.57-.68.93-.13.36-.21.75-.25,1.17,0,.46.16.98.48,1.56.32.52.82.84,1.5.95.67.11,1.59.17,2.74.17h4.95c2.33,0,4.17.32,5.52.97.7.31,1.35.74,1.94,1.31.59.56,1.1,1.21,1.53,1.96.43.74.77,1.58,1.01,2.5.25.92.37,1.89.37,2.9,0,2.28-.49,4.25-1.47,5.92-.91,1.63-2.14,2.69-3.67,3.18-1.52.44-3.5.65-5.96.65h-16.39v-6.09h14.73c.88.06,1.65.01,2.3-.13.65-.14,1.18-.35,1.6-.64.42-.29.72-.62.91-.99.18-.37.26-.78.23-1.21-.03-.77-.34-1.44-.95-2-.6-.56-1.48-.79-2.63-.67h-6.17c-2.09,0-3.83-.32-5.2-.95-.73-.35-1.4-.82-2-1.41-.6-.59-1.13-1.27-1.57-2.04-.44-.77-.79-1.63-1.03-2.56-.25-.93-.37-1.92-.37-2.96,0-1.98.43-3.78,1.29-5.39.44-.77.98-1.41,1.64-1.92.66-.51,1.41-.9,2.24-1.19.84-.29,1.73-.49,2.7-.6.96-.11,1.96-.17,3-.17h17.17Z"/>
    </g>
    <g>
      <path class="cls-3" d="M12.37,49.19v16.26h-7.37v-30.93h17.17c1.9,0,3.58.25,5.05.75,1.47.5,2.56,1.35,3.28,2.56.76,1.21,1.25,2.32,1.47,3.35.22,1.03.34,2.18.34,3.48,0,1.18-.08,2.21-.25,3.1-.17.9-.64,2.04-1.41,3.41-.76,1.38-1.94,2.32-3.55,2.84-1.61.52-3.75.78-6.44.78h-3.71l-4.57-5.6ZM12.37,48.24h6.51c1.85,0,3.12-.15,3.81-.44.72-.28,1.2-.68,1.46-1.2.26-.52.39-1.21.39-2.06,0-.76-.12-1.39-.36-1.9-.28-.46-.8-.82-1.57-1.06-.77-.25-1.96-.37-3.59-.37h-6.66v7.04Z"/>
      <path class="cls-3" d="M49.83,34.29c1.04,0,2.11.07,3.2.2,1.1.13,2.16.36,3.19.67,1.03.32,1.99.75,2.89,1.3.89.55,1.67,1.24,2.33,2.06,1.21,1.5,2.08,3.31,2.61,5.42.53,2.11.8,4.26.8,6.44,0,2.63-.34,5-1.01,7.11-.67,2.11-1.62,3.77-2.82,4.98-1.12,1.18-2.39,1.97-3.79,2.36-1.33.35-2.61.58-3.81.7-1.21.11-2.37.17-3.48.17-2.36,0-4.54-.23-6.54-.68-2-.46-3.69-1.29-5.07-2.5-1.36-1.21-2.4-3.02-3.12-5.44-.72-2.42-1.07-4.91-1.07-7.48v-.83c0-.25.01-.45.04-.62l.53-3.41c.28-1.9,1.03-3.71,2.23-5.44.77-1.12,1.66-2.02,2.68-2.68,1.01-.66,2.08-1.16,3.2-1.51,1.12-.34,2.28-.57,3.48-.67,1.19-.11,2.37-.16,3.54-.16ZM41.68,49.4c0,1.81.22,3.43.65,4.85.44,1.46,1.31,2.61,2.61,3.44,1.31.84,2.84,1.25,4.59,1.25,1.29,0,2.54-.28,3.75-.84,1.21-.56,2.13-1.39,2.76-2.49.63-1.04,1-2.02,1.1-2.93.11-.9.18-1.47.21-1.72.03-.25.04-.47.04-.66,0-1.54-.21-3.01-.63-4.39-.42-1.38-1.14-2.5-2.17-3.36-.66-.46-1.5-.82-2.51-1.08-1.01-.26-2-.39-2.97-.39s-2.08.22-3.37.65c-1.29.42-2.29,1.32-3,2.71-.71,1.38-1.06,3.04-1.06,4.96Z"/>
      <path class="cls-3" d="M95,34.53l-3.79,6.07h-12.39c-.8-.06-1.47-.02-2,.12-.53.13-.97.33-1.3.59-.33.26-.56.57-.68.93-.13.36-.21.75-.25,1.17,0,.46.16.98.48,1.56.32.52.82.84,1.5.95.67.11,1.59.17,2.74.17h4.95c2.33,0,4.17.32,5.52.97.7.31,1.35.74,1.94,1.31.59.56,1.1,1.21,1.53,1.96.43.74.77,1.58,1.01,2.5.25.92.37,1.89.37,2.9,0,2.28-.49,4.25-1.47,5.92-.91,1.63-2.14,2.69-3.67,3.18-1.52.44-3.5.65-5.96.65h-16.39v-6.09h14.73c.88.06,1.65.01,2.3-.13.65-.14,1.18-.35,1.6-.64.42-.29.72-.62.91-.99.18-.37.26-.78.23-1.21-.03-.77-.34-1.44-.95-2-.6-.56-1.48-.79-2.63-.67h-6.17c-2.09,0-3.83-.32-5.2-.95-.73-.35-1.4-.82-2-1.41-.6-.59-1.13-1.27-1.57-2.04-.44-.77-.79-1.63-1.03-2.56-.25-.93-.37-1.92-.37-2.96,0-1.98.43-3.78,1.29-5.39.44-.77.98-1.41,1.64-1.92.66-.51,1.41-.9,2.24-1.19.84-.29,1.73-.49,2.7-.6.96-.11,1.96-.17,3-.17h17.17Z"/>
    </g>
  </g>
</svg>